<svg width="140" height="40" viewBox="0 0 140 40" fill="none" xmlns="http://www.w3.org/2000/svg">
<path d="M34.1422 5.85781C30.3647 2.08031 25.3422 0 20 0C14.6578 0 9.63531 2.08031 5.85781 5.85781C2.08031 9.63531 0 14.6578 0 20C0 25.3422 2.08039 30.3646 5.85781 34.1422C9.63523 37.9198 14.6578 40 20 40C25.3422 40 30.3647 37.9197 34.1422 34.1422C37.9197 30.3647 40 25.3422 40 20C40 14.6578 37.9196 9.63539 34.1422 5.85781Z" fill="#33CC95"/>
<g clip-path="url(#clip0)">
<path d="M20.5714 8V33.1429" stroke="white" stroke-width="2" stroke-linecap="round" stroke-linejoin="round"/>
<path d="M26.2857 12.5714H17.7143C16.6534 12.5714 15.636 12.9929 14.8859 13.743C14.1357 14.4931 13.7143 15.5106 13.7143 16.5714C13.7143 17.6323 14.1357 18.6497 14.8859 19.3999C15.636 20.15 16.6534 20.5714 17.7143 20.5714H23.4286C24.4894 20.5714 25.5069 20.9929 26.257 21.743C27.0072 22.4932 27.4286 23.5106 27.4286 24.5714C27.4286 25.6323 27.0072 26.6497 26.257 27.3999C25.5069 28.15 24.4894 28.5714 23.4286 28.5714H13.7143" stroke="white" stroke-width="2" stroke-linecap="round" stroke-linejoin="round"/>
</g>
<path d="M60.5601 19.098H58.8141V27H56.2581V19.098H55.1241V17.028H56.2581V16.524C56.2581 15.3 56.6061 14.4 57.3021 13.824C57.9981 13.248 59.0481 12.978 60.4521 13.014V15.138C59.8401 15.126 59.4141 15.228 59.1741 15.444C58.9341 15.66 58.8141 16.05 58.8141 16.614V17.028H60.5601V19.098ZM68.0972 27L64.7132 22.752V27H62.1932V13.68H64.7132V21.258L68.0612 17.028H71.3372L66.9452 22.032L71.3732 27H68.0972ZM89.378 16.884C90.602 16.884 91.586 17.262 92.33 18.018C93.086 18.762 93.464 19.806 93.464 21.15V27H90.944V21.492C90.944 20.712 90.746 20.118 90.35 19.71C89.954 19.29 89.414 19.08 88.73 19.08C88.046 19.08 87.5 19.29 87.092 19.71C86.696 20.118 86.498 20.712 86.498 21.492V27H83.978V21.492C83.978 20.712 83.78 20.118 83.384 19.71C82.988 19.29 82.448 19.08 81.764 19.08C81.068 19.08 80.516 19.29 80.108 19.71C79.712 20.118 79.514 20.712 79.514 21.492V27H76.994V17.028H79.514V18.234C79.838 17.814 80.252 17.484 80.756 17.244C81.272 17.004 81.836 16.884 82.448 16.884C83.228 16.884 83.924 17.052 84.536 17.388C85.148 17.712 85.622 18.18 85.958 18.792C86.282 18.216 86.75 17.754 87.362 17.406C87.986 17.058 88.658 16.884 89.378 16.884ZM100.283 27.162C99.3233 27.162 98.4593 26.952 97.6913 26.532C96.9233 26.1 96.3173 25.494 95.8733 24.714C95.4413 23.934 95.2253 23.034 95.2253 22.014C95.2253 20.994 95.4473 20.094 95.8913 19.314C96.3473 18.534 96.9653 17.934 97.7453 17.514C98.5253 17.082 99.3953 16.866 100.355 16.866C101.315 16.866 102.185 17.082 102.965 17.514C103.745 17.934 104.357 18.534 104.801 19.314C105.257 20.094 105.485 20.994 105.485 22.014C105.485 23.034 105.251 23.934 104.783 24.714C104.327 25.494 103.703 26.1 102.911 26.532C102.131 26.952 101.255 27.162 100.283 27.162ZM100.283 24.966C100.739 24.966 101.165 24.858 101.561 24.642C101.969 24.414 102.293 24.078 102.533 23.634C102.773 23.19 102.893 22.65 102.893 22.014C102.893 21.066 102.641 20.34 102.137 19.836C101.645 19.32 101.039 19.062 100.319 19.062C99.5993 19.062 98.9933 19.32 98.5013 19.836C98.0213 20.34 97.7813 21.066 97.7813 22.014C97.7813 22.962 98.0153 23.694 98.4833 24.21C98.9633 24.714 99.5633 24.966 100.283 24.966ZM112.86 16.884C114.048 16.884 115.008 17.262 115.74 18.018C116.472 18.762 116.838 19.806 116.838 21.15V27H114.318V21.492C114.318 20.7 114.12 20.094 113.724 19.674C113.328 19.242 112.788 19.026 112.104 19.026C111.408 19.026 110.856 19.242 110.448 19.674C110.052 20.094 109.854 20.7 109.854 21.492V27H107.334V17.028H109.854V18.27C110.19 17.838 110.616 17.502 111.132 17.262C111.66 17.01 112.236 16.884 112.86 16.884ZM128.504 21.798C128.504 22.158 128.48 22.482 128.432 22.77H121.142C121.202 23.49 121.454 24.054 121.898 24.462C122.342 24.87 122.888 25.074 123.536 25.074C124.472 25.074 125.138 24.672 125.534 23.868H128.252C127.964 24.828 127.412 25.62 126.596 26.244C125.78 26.856 124.778 27.162 123.59 27.162C122.63 27.162 121.766 26.952 120.998 26.532C120.242 26.1 119.648 25.494 119.216 24.714C118.796 23.934 118.586 23.034 118.586 22.014C118.586 20.982 118.796 20.076 119.216 19.296C119.636 18.516 120.224 17.916 120.98 17.496C121.736 17.076 122.606 16.866 123.59 16.866C124.538 16.866 125.384 17.07 126.128 17.478C126.884 17.886 127.466 18.468 127.874 19.224C128.294 19.968 128.504 20.826 128.504 21.798ZM125.894 21.078C125.882 20.43 125.648 19.914 125.192 19.53C124.736 19.134 124.178 18.936 123.518 18.936C122.894 18.936 122.366 19.128 121.934 19.512C121.514 19.884 121.256 20.406 121.16 21.078H125.894ZM139.884 17.028L133.71 31.716H131.028L133.188 26.748L129.192 17.028H132.018L134.592 23.994L137.202 17.028H139.884Z" fill="white"/>
<defs>
<clipPath id="clip0">
<rect width="27.4286" height="27.4286" fill="white" transform="translate(6.85715 6.85714)"/>
</clipPath>
</defs>
</svg>
